<svg width="163" height="35" viewBox="0 0 163 35" fill="none" xmlns="http://www.w3.org/2000/svg">
<path fill-rule="evenodd" clip-rule="evenodd" d="M20.4376 10.4377L14.2658 3.93237L8.0941 10.4377L0 14.2971L4.09935 21.8449L22.1355 13.9997L4.95855 27.3381L5.44907 31.0676L14.2658 29.4324L23.0826 31.0676L24.2519 22.1771L28.5317 14.2971L20.4376 10.4377Z" fill="black"/>
<path d="M56.3928 14.2087H52.5918C52.4834 13.5853 52.2835 13.0331 51.9922 12.5521C51.7008 12.0642 51.3384 11.6509 50.9047 11.3122C50.4711 10.9734 49.9765 10.7193 49.4209 10.5499C48.8721 10.3738 48.2793 10.2857 47.6424 10.2857C46.5109 10.2857 45.5081 10.5703 44.6341 11.1394C43.7601 11.7017 43.0757 12.5283 42.5811 13.6192C42.0865 14.7033 41.8392 16.0278 41.8392 17.593C41.8392 19.1852 42.0865 20.5267 42.5811 21.6176C43.0825 22.7016 43.7668 23.5215 44.6341 24.077C45.5081 24.6258 46.5075 24.9002 47.6322 24.9002C48.2556 24.9002 48.8382 24.8189 49.3803 24.6563C49.9291 24.4869 50.4203 24.2396 50.8539 23.9144C51.2943 23.5892 51.6636 23.1895 51.9617 22.7152C52.2666 22.2409 52.4766 21.6989 52.5918 21.0891L56.3928 21.1094C56.2505 22.0986 55.9423 23.0268 55.468 23.8941C55.0005 24.7614 54.3873 25.527 53.6285 26.191C52.8696 26.8482 51.982 27.3631 50.9657 27.7358C49.9494 28.1016 48.8213 28.2846 47.5814 28.2846C45.752 28.2846 44.1192 27.8611 42.6828 27.0142C41.2464 26.1673 40.1149 24.9443 39.2883 23.3453C38.4617 21.7463 38.0484 19.8289 38.0484 17.593C38.0484 15.3503 38.4651 13.4329 39.2985 11.8406C40.1318 10.2416 41.2667 9.01868 42.7031 8.17176C44.1395 7.32483 45.7656 6.90137 47.5814 6.90137C48.74 6.90137 49.8173 7.06398 50.8133 7.3892C51.8093 7.71442 52.6968 8.19209 53.476 8.8222C54.2552 9.44554 54.8955 10.2112 55.3968 11.1191C55.905 12.0202 56.237 13.0501 56.3928 14.2087ZM59.6831 28V12.3895H63.2504V14.9912H63.413C63.6976 14.0901 64.1854 13.3956 64.8765 12.9078C65.5743 12.4132 66.3705 12.1659 67.2648 12.1659C67.4681 12.1659 67.6951 12.176 67.9457 12.1964C68.2032 12.2099 68.4166 12.2336 68.586 12.2675V15.6518C68.4302 15.5976 68.1829 15.5502 67.8441 15.5095C67.5121 15.4621 67.1903 15.4384 66.8786 15.4384C66.2079 15.4384 65.6048 15.5841 65.0696 15.8754C64.5411 16.16 64.1244 16.5563 63.8195 17.0645C63.5146 17.5726 63.3622 18.1587 63.3622 18.8227V28H59.6831ZM77.2984 28.3049C75.7332 28.3049 74.3815 27.9797 73.2433 27.3292C72.1118 26.672 71.2411 25.7438 70.6313 24.5445C70.0216 23.3385 69.7167 21.9191 69.7167 20.2862C69.7167 18.6804 70.0216 17.2711 70.6313 16.0583C71.2479 14.8388 72.1084 13.8902 73.2128 13.2127C74.3172 12.5283 75.6147 12.1862 77.1053 12.1862C78.0674 12.1862 78.9753 12.342 79.829 12.6537C80.6894 12.9586 81.4483 13.4329 82.1055 14.0765C82.7695 14.7202 83.2912 15.54 83.6706 16.536C84.0501 17.5252 84.2398 18.7041 84.2398 20.0728V21.2009H71.4444V18.7211H80.7132C80.7064 18.0164 80.5539 17.3897 80.2558 16.8409C79.9577 16.2853 79.541 15.8483 79.0058 15.5299C78.4773 15.2114 77.8607 15.0522 77.1561 15.0522C76.404 15.0522 75.7434 15.2351 75.1743 15.601C74.6051 15.9601 74.1613 16.4344 73.8429 17.0238C73.5312 17.6065 73.372 18.2468 73.3652 18.9447V21.1094C73.3652 22.0173 73.5312 22.7965 73.8632 23.4469C74.1952 24.0906 74.6593 24.5852 75.2556 24.9307C75.8518 25.2695 76.5497 25.4389 77.3492 25.4389C77.8844 25.4389 78.3689 25.3644 78.8025 25.2153C79.2361 25.0595 79.6122 24.8325 79.9306 24.5344C80.249 24.2363 80.4896 23.867 80.6522 23.4266L84.0873 23.8128C83.8705 24.7207 83.4572 25.5134 82.8474 26.191C82.2444 26.8617 81.472 27.3834 80.5302 27.7561C79.5884 28.122 78.5112 28.3049 77.2984 28.3049ZM91.8443 28.3151C90.8551 28.3151 89.9641 28.1389 89.1714 27.7866C88.3855 27.4275 87.7621 26.899 87.3014 26.2011C86.8474 25.5033 86.6205 24.6428 86.6205 23.6197C86.6205 22.7389 86.7831 22.0105 87.1083 21.4346C87.4335 20.8587 87.8773 20.398 88.4397 20.0524C89.002 19.7069 89.6355 19.446 90.3402 19.2699C91.0516 19.0869 91.7867 18.9548 92.5456 18.8735C93.4602 18.7787 94.2022 18.694 94.7713 18.6194C95.3404 18.5381 95.7537 18.4162 96.0112 18.2536C96.2754 18.0842 96.4076 17.8233 96.4076 17.471V17.41C96.4076 16.6444 96.1806 16.0516 95.7266 15.6315C95.2727 15.2114 94.6188 15.0014 93.7651 15.0014C92.864 15.0014 92.1492 15.1979 91.6207 15.5908C91.099 15.9838 90.7467 16.4479 90.5638 16.9832L87.1286 16.4954C87.3996 15.5468 87.8468 14.7541 88.4702 14.1172C89.0935 13.4735 89.8557 12.9925 90.7569 12.674C91.658 12.3488 92.654 12.1862 93.7448 12.1862C94.4969 12.1862 95.2456 12.2743 95.9909 12.4504C96.7362 12.6266 97.4171 12.9179 98.0337 13.3245C98.6502 13.7242 99.1448 14.2696 99.5175 14.9607C99.8969 15.6518 100.087 16.5157 100.087 17.5523V28H96.5498V25.8556H96.4279C96.2043 26.2892 95.8892 26.6957 95.4827 27.0752C95.083 27.4478 94.5782 27.7493 93.9684 27.9797C93.3654 28.2033 92.6574 28.3151 91.8443 28.3151ZM92.7996 25.6117C93.5382 25.6117 94.1784 25.466 94.7205 25.1747C95.2625 24.8765 95.6792 24.4836 95.9705 23.9957C96.2687 23.5079 96.4177 22.976 96.4177 22.4001V20.5606C96.3025 20.6555 96.106 20.7435 95.8283 20.8248C95.5572 20.9061 95.2523 20.9773 94.9136 21.0383C94.5748 21.0992 94.2394 21.1534 93.9074 21.2009C93.5754 21.2483 93.2875 21.289 93.0436 21.3228C92.4948 21.3974 92.0035 21.5193 91.5699 21.6887C91.1363 21.8581 90.7941 22.0952 90.5434 22.4001C90.2927 22.6982 90.1674 23.0844 90.1674 23.5587C90.1674 24.2363 90.4147 24.7478 90.9093 25.0933C91.4039 25.4389 92.034 25.6117 92.7996 25.6117ZM111.581 12.3895V15.2351H102.607V12.3895H111.581ZM104.823 8.64943H108.502V23.3046C108.502 23.7992 108.576 24.1787 108.725 24.4429C108.881 24.7004 109.084 24.8765 109.335 24.9714C109.586 25.0662 109.864 25.1137 110.168 25.1137C110.399 25.1137 110.609 25.0967 110.799 25.0629C110.995 25.029 111.144 24.9985 111.246 24.9714L111.866 27.8476C111.669 27.9153 111.388 27.9898 111.022 28.0711C110.663 28.1524 110.223 28.1999 109.701 28.2134C108.779 28.2405 107.949 28.1016 107.211 27.7967C106.472 27.4851 105.886 27.004 105.453 26.3536C105.026 25.7031 104.816 24.8901 104.823 23.9144V8.64943ZM114.658 28V12.3895H118.337V28H114.658ZM116.508 10.1739C115.925 10.1739 115.424 9.98079 115.004 9.59459C114.583 9.20162 114.373 8.73073 114.373 8.18192C114.373 7.62634 114.583 7.15545 115.004 6.76925C115.424 6.37627 115.925 6.17979 116.508 6.17979C117.097 6.17979 117.598 6.37627 118.012 6.76925C118.432 7.15545 118.642 7.62634 118.642 8.18192C118.642 8.73073 118.432 9.20162 118.012 9.59459C117.598 9.98079 117.097 10.1739 116.508 10.1739ZM136.064 12.3895L130.505 28H126.44L120.88 12.3895H124.803L128.391 23.9856H128.553L132.151 12.3895H136.064ZM144.888 28.3049C143.364 28.3049 142.042 27.9695 140.925 27.2987C139.807 26.628 138.939 25.6896 138.323 24.4836C137.713 23.2775 137.408 21.8683 137.408 20.2557C137.408 18.6432 137.713 17.2305 138.323 16.0177C138.939 14.8049 139.807 13.8631 140.925 13.1923C142.042 12.5216 143.364 12.1862 144.888 12.1862C146.413 12.1862 147.734 12.5216 148.852 13.1923C149.97 13.8631 150.834 14.8049 151.443 16.0177C152.06 17.2305 152.368 18.6432 152.368 20.2557C152.368 21.8683 152.06 23.2775 151.443 24.4836C150.834 25.6896 149.97 26.628 148.852 27.2987C147.734 27.9695 146.413 28.3049 144.888 28.3049ZM144.908 25.3576C145.735 25.3576 146.426 25.1306 146.982 24.6767C147.537 24.2159 147.951 23.5994 148.222 22.827C148.499 22.0546 148.638 21.1941 148.638 20.2455C148.638 19.2902 148.499 18.4263 148.222 17.6539C147.951 16.8748 147.537 16.2548 146.982 15.7941C146.426 15.3334 145.735 15.103 144.908 15.103C144.062 15.103 143.357 15.3334 142.795 15.7941C142.239 16.2548 141.822 16.8748 141.544 17.6539C141.273 18.4263 141.138 19.2902 141.138 20.2455C141.138 21.1941 141.273 22.0546 141.544 22.827C141.822 23.5994 142.239 24.2159 142.795 24.6767C143.357 25.1306 144.062 25.3576 144.908 25.3576ZM157.757 28.2236C157.141 28.2236 156.612 28.0068 156.172 27.5731C155.731 27.1395 155.515 26.611 155.521 25.9877C155.515 25.3779 155.731 24.8562 156.172 24.4226C156.612 23.989 157.141 23.7721 157.757 23.7721C158.353 23.7721 158.872 23.989 159.312 24.4226C159.759 24.8562 159.986 25.3779 159.993 25.9877C159.986 26.401 159.878 26.777 159.668 27.1158C159.465 27.4546 159.194 27.7256 158.855 27.9289C158.523 28.1253 158.157 28.2236 157.757 28.2236Z" fill="black"/>
</svg>
